<?xml version="1.0" standalone="no"?>
<!DOCTYPE svg PUBLIC "-//W3C//DTD SVG 20010904//EN"
 "http://www.w3.org/TR/2001/REC-SVG-20010904/DTD/svg10.dtd">
<svg version="1.0" xmlns="http://www.w3.org/2000/svg"
 width="16.000000pt" height="16.000000pt" viewBox="0 0 16.000000 16.000000"
 preserveAspectRatio="xMidYMid meet">
<metadata>
Created by potrace 1.11, written by Peter Selinger 2001-2013
</metadata>
<g transform="translate(0.000000,16.000000) scale(0.003125,-0.003125)"
fill="#000000" stroke="none">
<path d="M0 2560 l0 -2560 2560 0 2560 0 0 2560 0 2560 -2560 0 -2560 0 0
-2560z m2360 1771 c304 -67 596 -208 796 -384 l44 -38 82 18 c118 26 430 26
543 0 402 -92 699 -287 900 -592 69 -105 96 -160 139 -283 58 -167 71 -251 70
-462 -1 -216 -20 -331 -85 -495 -121 -310 -348 -559 -649 -710 -99 -50 -292
-112 -405 -131 -133 -22 -352 -22 -477 0 l-96 17 -84 -67 c-346 -280 -767
-420 -1203 -401 -445 21 -842 190 -1159 496 -355 344 -546 793 -546 1288 0
291 73 585 207 833 277 514 758 844 1358 934 17 2 129 3 250 1 178 -2 238 -7
315 -24z"/>
<path d="M3501 3563 c12 -21 30 -49 40 -63 76 -113 178 -376 219 -567 28 -126
38 -427 20 -568 -30 -244 -119 -504 -238 -698 -23 -37 -42 -72 -42 -77 0 -20
191 -4 306 26 91 23 223 85 308 144 143 99 285 274 345 428 110 278 99 614
-27 872 -158 323 -503 540 -857 540 l-97 0 23 -37z"/>
</g>
</svg>
